<svg xmlns="http://www.w3.org/2000/svg" viewBox="0 0 100 100">
  <defs>
    <linearGradient id="bg" x1="0%" y1="0%" x2="100%" y2="100%">
      <stop offset="0%" style="stop-color:#2d3748;stop-opacity:1" />
      <stop offset="100%" style="stop-color:#1a202c;stop-opacity:1" />
    </linearGradient>
    <linearGradient id="piece" x1="0%" y1="0%" x2="0%" y2="100%">
      <stop offset="0%" style="stop-color:#ffffff;stop-opacity:1" />
      <stop offset="100%" style="stop-color:#e2e8f0;stop-opacity:1" />
    </linearGradient>
  </defs>
  <rect width="100" height="100" rx="20" fill="url(#bg)" />
  <!-- A larger, more detailed King/Queen silhouette -->
  <path fill="url(#piece)" d="M 50 10 C 56 10 56 22 50 22 C 44 22 44 10 50 10 Z M 45 26 L 55 26 L 55 35 L 65 35 L 65 45 L 55 45 L 55 65 C 75 65 82 72 82 85 L 18 85 C 18 72 25 65 45 65 L 45 45 L 35 45 L 35 35 L 45 35 Z" />
</svg>